<?xml version="1.0" encoding="utf-8"?><svg viewBox="0 0 329 329" xmlns="http://www.w3.org/2000/svg" xmlns:xlink="http://www.w3.org/1999/xlink"><style>:root>svg{display:none}:root>svg:target{display:block}</style><svg fill="none" viewBox="0 0 9 44" id="attention" xmlns="http://www.w3.org/2000/svg"><path d="m7.777.344-.703 30.088H1.04L.307.344h7.47ZM.102 39.66c0-1.074.351-1.972 1.054-2.695.723-.742 1.719-1.113 2.989-1.113 1.25 0 2.236.37 2.959 1.113.722.722 1.083 1.62 1.083 2.695a3.687 3.687 0 0 1-1.083 2.666c-.723.723-1.71 1.084-2.96 1.084-1.269 0-2.265-.361-2.988-1.084-.703-.742-1.054-1.63-1.054-2.666Z" fill="#ECF6F7"/></svg><svg fill="none" viewBox="0 0 28 30" id="calendar_i" xmlns="http://www.w3.org/2000/svg"><path d="M3.5 30a2.889 2.889 0 0 1-2.119-.881A2.89 2.89 0 0 1 .5 27V6c0-.825.294-1.531.881-2.119A2.889 2.889 0 0 1 3.5 3H5V0h3v3h12V0h3v3h1.5a2.89 2.89 0 0 1 2.119.881c.587.588.881 1.294.881 2.119v21c0 .825-.294 1.531-.881 2.119A2.889 2.889 0 0 1 24.5 30h-21Zm0-3h21V12h-21v15Zm0-18h21V6h-21v3ZM14 18c-.425 0-.781-.144-1.069-.431A1.452 1.452 0 0 1 12.5 16.5c0-.425.144-.781.431-1.069A1.451 1.451 0 0 1 14 15c.425 0 .781.144 1.069.431.287.288.431.644.431 1.069 0 .425-.144.781-.431 1.069A1.451 1.451 0 0 1 14 18Zm-6 0c-.425 0-.781-.144-1.069-.431A1.452 1.452 0 0 1 6.5 16.5c0-.425.144-.781.431-1.069A1.451 1.451 0 0 1 8 15c.425 0 .781.144 1.069.431.287.288.431.644.431 1.069 0 .425-.144.781-.431 1.069A1.451 1.451 0 0 1 8 18Zm12 0c-.425 0-.781-.144-1.069-.431A1.452 1.452 0 0 1 18.5 16.5c0-.425.144-.781.431-1.069A1.451 1.451 0 0 1 20 15c.425 0 .781.144 1.069.431.287.288.431.644.431 1.069 0 .425-.144.781-.431 1.069A1.452 1.452 0 0 1 20 18Zm-6 6c-.425 0-.781-.144-1.069-.431A1.452 1.452 0 0 1 12.5 22.5c0-.425.144-.781.431-1.069A1.451 1.451 0 0 1 14 21c.425 0 .781.144 1.069.431.287.288.431.644.431 1.069 0 .425-.144.781-.431 1.069A1.451 1.451 0 0 1 14 24Zm-6 0c-.425 0-.781-.144-1.069-.431A1.452 1.452 0 0 1 6.5 22.5c0-.425.144-.781.431-1.069A1.451 1.451 0 0 1 8 21c.425 0 .781.144 1.069.431.287.288.431.644.431 1.069 0 .425-.144.781-.431 1.069A1.451 1.451 0 0 1 8 24Zm12 0c-.425 0-.781-.144-1.069-.431A1.452 1.452 0 0 1 18.5 22.5c0-.425.144-.781.431-1.069A1.451 1.451 0 0 1 20 21c.425 0 .781.144 1.069.431.287.288.431.644.431 1.069 0 .425-.144.781-.431 1.069A1.452 1.452 0 0 1 20 24Z" fill="#8DC0DF"/></svg><svg fill="none" viewBox="0 0 9 16" id="fb-i" xmlns="http://www.w3.org/2000/svg"><path d="M6 6h3v3H6v7H3V9H0V6h3V4.745c0-1.189.374-2.691 1.118-3.512C4.862.41 5.791 0 6.904 0H9v3H6.9c-.498 0-.9.402-.9.899V6Z" fill="#356380"/></svg><svg fill="none" viewBox="0 0 16 21" id="location_i" xmlns="http://www.w3.org/2000/svg"><path d="M8 10.5c.55 0 1.02-.196 1.412-.588C9.804 9.521 10 9.05 10 8.5c0-.55-.196-1.02-.588-1.412A1.926 1.926 0 0 0 8 6.5c-.55 0-1.02.196-1.412.588A1.926 1.926 0 0 0 6 8.5c0 .55.196 1.02.588 1.412.391.392.862.588 1.412.588Zm0 7.35c2.033-1.867 3.542-3.563 4.525-5.088C13.508 11.238 14 9.883 14 8.7c0-1.817-.58-3.304-1.738-4.462C11.104 3.079 9.683 2.5 8 2.5c-1.683 0-3.104.58-4.263 1.737C2.58 5.396 2 6.883 2 8.7c0 1.183.492 2.538 1.475 4.063.983 1.524 2.492 3.22 4.525 5.087Zm0 2.65c-2.683-2.283-4.688-4.404-6.013-6.363C.662 12.18 0 10.367 0 8.7c0-2.5.804-4.492 2.413-5.975C4.02 1.242 5.883.5 8 .5c2.117 0 3.98.742 5.588 2.225S16 6.2 16 8.7c0 1.667-.662 3.48-1.988 5.438C12.688 16.095 10.683 18.216 8 20.5Z" fill="#fff"/></svg><svg fill="none" viewBox="0 0 24 24" id="telegram-i" xmlns="http://www.w3.org/2000/svg"><g clip-path="url(#ea)"><path d="M23.989 2.531a.8.8 0 0 0-1.058-.885l-22.4 8a.8.8 0 0 0-.09 1.47l6.4 3.2a.8.8 0 0 0 .802-.05l5.312-3.543-3.179 3.978a.8.8 0 0 0 .18 1.165l9.6 6.4a.801.801 0 0 0 1.233-.535l3.2-19.2Z" fill="#356380"/></g><defs><clipPath id="ea"><path fill="#fff" d="M0 0h24v24H0z"/></clipPath></defs></svg><svg fill="none" viewBox="0 0 329 329" id="timer-ico" xmlns="http://www.w3.org/2000/svg"><path d="M164.344 328.328c-22.675 0-43.984-4.303-63.927-12.909-19.944-8.605-37.292-20.284-52.044-35.037-14.753-14.753-26.432-32.101-35.038-52.044C4.73 208.395.427 187.086.427 164.41c0-22.675 4.303-43.984 12.908-63.928 8.606-19.943 20.285-37.29 35.038-52.043 14.752-14.753 32.1-26.432 52.044-35.038C120.36 4.796 141.669.493 164.344.493c22.676 0 43.985 4.303 63.928 12.908 19.943 8.606 37.291 20.285 52.044 35.038 14.753 14.752 26.432 32.1 35.037 52.043 8.606 19.944 12.909 41.253 12.909 63.928 0 7.377-.41 14.616-1.229 21.719a134.716 134.716 0 0 1-4.098 20.9c-3.825-4.371-8.265-8.059-13.319-11.065-5.054-3.005-10.586-5.054-16.596-6.146a125.43 125.43 0 0 0 1.844-12.499c.409-4.235.614-8.538.614-12.909 0-36.608-12.703-67.616-38.11-93.023-25.408-25.407-56.415-38.11-93.024-38.11-36.608 0-67.616 12.703-93.023 38.11-25.407 25.407-38.11 56.415-38.11 93.023 0 36.609 12.703 67.616 38.11 93.024 25.407 25.407 56.415 38.11 93.023 38.11 13.933 0 27.252-2.049 39.955-6.147 12.704-4.098 24.383-9.835 35.038-17.211 3.278 4.644 7.308 8.742 12.089 12.294 4.78 3.551 9.903 6.283 15.367 8.196-13.933 11.201-29.574 19.943-46.922 26.227-17.348 6.283-35.857 9.425-55.527 9.425Zm118.841-65.567c-5.738 0-10.587-1.981-14.548-5.942-3.961-3.962-5.942-8.811-5.942-14.548s1.981-10.586 5.942-14.548c3.961-3.961 8.81-5.942 14.548-5.942 5.737 0 10.586 1.981 14.547 5.942 3.962 3.962 5.942 8.811 5.942 14.548s-1.98 10.586-5.942 14.548c-3.961 3.961-8.81 5.942-14.547 5.942Zm-64.748-21.309-70.484-70.485V82.452h32.783v75.402l60.65 60.649-22.949 22.949Z" fill="#ECF6F7"/></svg><svg fill="none" viewBox="0 0 20 21" id="vaiber_i" xmlns="http://www.w3.org/2000/svg"><path fill-rule="evenodd" clip-rule="evenodd" d="M14.676.628a21.9 21.9 0 0 0-9.555 0l-.339.075a4.905 4.905 0 0 0-3.684 3.58 19.467 19.467 0 0 0 0 9.577 4.905 4.905 0 0 0 3.444 3.52l.465 2.776a.5.5 0 0 0 .826.29l2.731-2.443a21.9 21.9 0 0 0 6.112-.487l.34-.075a4.905 4.905 0 0 0 3.684-3.58 19.47 19.47 0 0 0 0-9.577 4.905 4.905 0 0 0-3.685-3.58l-.339-.076ZM5.965 4.202a.822.822 0 0 0-.537.106h-.014c-.375.22-.713.497-1.001.823-.24.277-.37.557-.404.827-.02.16-.006.322.041.475l.018.01c.27.793.622 1.556 1.052 2.274a13.374 13.374 0 0 0 2.03 2.775l.024.034.038.028.023.027.028.024a13.565 13.565 0 0 0 2.782 2.04c1.155.629 1.856.926 2.277 1.05v.006c.123.038.235.055.348.055a1.61 1.61 0 0 0 .964-.414c.325-.288.6-.627.814-1.004v-.007c.201-.38.133-.738-.157-.981A12.126 12.126 0 0 0 12.41 11c-.448-.243-.903-.096-1.087.15l-.393.496c-.202.246-.568.212-.568.212l-.01.006c-2.731-.697-3.46-3.462-3.46-3.462s-.034-.376.219-.568l.492-.396c.236-.192.4-.646.147-1.094a11.808 11.808 0 0 0-1.347-1.88.748.748 0 0 0-.44-.263l.002.001ZM10.579 3a.5.5 0 1 0 0 1c1.265 0 2.315.413 3.146 1.205.427.433.76.946.978 1.508.219.563.319 1.164.293 1.766a.5.5 0 1 0 1 .042 5.36 5.36 0 0 0-.361-2.17 5.442 5.442 0 0 0-1.204-1.854l-.01-.01C13.39 3.502 12.085 3 10.579 3Zm-.034 1.644a.5.5 0 1 0 0 1h.017c.912.065 1.576.369 2.041.868.477.514.724 1.153.705 1.943a.5.5 0 0 0 1 .023c.024-1.037-.31-1.932-.972-2.646V5.83c-.677-.726-1.606-1.11-2.724-1.185l-.017-.002-.05.001Zm-.019 1.675a.5.5 0 1 0-.052.998c.418.022.685.148.853.317.169.17.295.443.318.87a.5.5 0 1 0 .998-.053c-.032-.6-.22-1.13-.605-1.52-.387-.39-.914-.58-1.512-.612Z" fill="#356380"/></svg><svg fill="none" viewBox="0 0 18 16" id="x-i" xmlns="http://www.w3.org/2000/svg"><path d="M15.89 3.012c.808-.496 1.343-1.173 1.605-2.034-.738.4-1.53.69-2.351.861-.703-.756-1.593-1.14-2.66-1.14-1.043 0-1.924.366-2.643 1.078a3.56 3.56 0 0 0-1.076 2.605c0 .31.039.585.117.82C5.806 5.095 3.26 3.82 1.254 1.363c-.34.601-.51 1.213-.51 1.846 0 1.301.549 2.332 1.645 3.09-.625-.054-1.176-.212-1.645-.47 0 .928.273 1.704.82 2.387a3.623 3.623 0 0 0 2.115 1.291c-.312.08-.641.118-.979.118-.312 0-.533-.026-.664-.083.23.757.664 1.371 1.291 1.841.62.47 1.374.731 2.152.743C4.147 13.172 2.624 13.69.901 13.69c-.422 0-.721-.006-.902-.038 1.697 1.102 3.586 1.65 5.676 1.65 2.139 0 4.029-.543 5.674-1.627 1.645-1.078 2.859-2.408 3.639-3.974a10.77 10.77 0 0 0 1.172-4.892V4.34A7.787 7.787 0 0 0 18 2.42a8.143 8.143 0 0 1-2.11.592Z" fill="#356380"/></svg><svg fill="none" viewBox="0 0 24 24" id="youtube-i" xmlns="http://www.w3.org/2000/svg"><g clip-path="url(#ia)"><path d="M23.843 6.975c0-2.11-1.552-3.807-3.47-3.807A170.472 170.472 0 0 0 12.423 3h-.844c-2.7 0-5.353.047-7.95.169-1.912 0-3.464 1.706-3.464 3.815A69.731 69.731 0 0 0 0 11.99a72.582 72.582 0 0 0 .16 5.011c0 2.11 1.551 3.82 3.463 3.82 2.729.127 5.527.183 8.372.178 2.85.01 5.64-.05 8.372-.178 1.917 0 3.469-1.71 3.469-3.82.112-1.673.164-3.342.16-5.016.01-1.668-.041-3.339-.153-5.01Zm-14.14 9.614V7.378L16.5 11.98l-6.797 4.608Z" fill="#356380"/></g><defs><clipPath id="ia"><path fill="#fff" d="M0 0h24v24H0z"/></clipPath></defs></svg></svg>